<svg xmlns="http://www.w3.org/2000/svg" viewBox="0 0 500 500" xml:space="preserve">
  <path fill="#1e1e2e" d="M0 0h500v500H0z"/>
  <g stroke="#00838f">
    <path d="m260.861 371.651 11.807 23.297a8 8 0 0 0 7.143 4.386c1.216 0 2.45-.278 3.609-.866a8 8 0 0 0 3.52-10.752l-11.719-22.874-15.22-114.177h138.195l-3.011-49.934c-3.327-54.898-51.049-100.066-106.049-100.066h-87c-55 0-100.333 45-100.333 100v99h91.161zm-51.264-77.668 35.216-36.651 11.457 86.133z" fill="#00838f" stroke-width="4" stroke-linejoin="round"/>
    <text x="149.334" y="110" text-anchor="middle" font-family="Inter" font-weight="bold" font-size="80" fill="#1e1e2e" stroke-width="2" transform="translate(100.665 100.665)">TT</text>
  </g>
</svg>
